HIERARCHY
ROOT pelvis
{
  OFFSET 0 100 0
  CHANNELS 6 Xposition Yposition Zposition Zrotation Xrotation Yrotation
  JOINT pelvis_right_femur
  {
    OFFSET -10.78128 -3.44521 -0.5502486
    CHANNELS 3 Zrotation Xrotation Yrotation
    JOINT right_femur_tibia
    {
      OFFSET -0.8047443 -44.0398 -0.1307829
      CHANNELS 3 Zrotation Xrotation Yrotation
      JOINT right_tibia_foot
      {
        OFFSET 3.006224 -47.83518 -5
        CHANNELS 3 Zrotation Xrotation Yrotation
        End Site
        {
          OFFSET 0 -5 15
        }
      }
    }
  }
  JOINT pelvis_left_femur
  {
    OFFSET 10.78128 -3.44521 -0.5502486
    CHANNELS 3 Zrotation Xrotation Yrotation
    JOINT left_femur_tibia
    {
      OFFSET 0.8047443 -44.0398 -0.1307829
      CHANNELS 3 Zrotation Xrotation Yrotation
      JOINT left_tibia_foot
      {
        OFFSET -4.370144 -48.10324 -4.275266
        CHANNELS 3 Zrotation Xrotation Yrotation
        End Site
        {
          OFFSET 0 -5 15
        }
      }
    }
  }
  JOINT pelvis_spine1
  {
    OFFSET 0 6.468898 -3.129235
    CHANNELS 3 Zrotation Xrotation Yrotation
    JOINT spine1
    {
      OFFSET 0 23.15396 4.99043
      CHANNELS 3 Zrotation Xrotation Yrotation
      JOINT spine2
      {
        OFFSET 0 20.79997 -5.064912
        CHANNELS 3 Zrotation Xrotation Yrotation
        JOINT neck
        {
          OFFSET 0 14.38658 9.616178
          CHANNELS 3 Zrotation Xrotation Yrotation
          End Site
          {
            OFFSET 0 20 0
          }
        }
      }
      JOINT right_manubrium
      {
        OFFSET -5.722621 16.35077 3.967754
        CHANNELS 3 Zrotation Xrotation Yrotation
        JOINT right_clavicle
        {
          OFFSET -13.16364 1.694482 -4.693211
          CHANNELS 3 Zrotation Xrotation Yrotation
          JOINT right_humerus
          {
            OFFSET -28.5034 -0.3100689 -2.792744
            CHANNELS 3 Zrotation Xrotation Yrotation
            JOINT right_radius
            {
              OFFSET -25.15693 0.02248979 -1.271978
              CHANNELS 3 Zrotation Xrotation Yrotation
              End Site
              {
                OFFSET -15 0 0
              }
            }
          }
        }
      }
      JOINT left_manubrium
      {
        OFFSET 5.722621 16.35077 3.967754
        CHANNELS 3 Zrotation Xrotation Yrotation
        JOINT left_clavicle
        {
          OFFSET 13.16364 1.694482 -4.693211
          CHANNELS 3 Zrotation Xrotation Yrotation
          JOINT left_humerus
          {
            OFFSET 29.39168 -1.063119 -2.237045
            CHANNELS 3 Zrotation Xrotation Yrotation
            JOINT left_radius
            {
              OFFSET 24.59957 -0.9528479 0.9047498
              CHANNELS 3 Zrotation Xrotation Yrotation
              End Site
              {
                OFFSET 15 -0 -0
              }
            }
          }
        }
      }
    }
  }
}
MOTION
Frames: 15
Frame Time: 0.0416666666667
-521.9749 69.74136 1508.674 -2.173222 -2.226965 -10.62713 8.123789 -16.44236 5.842603 -0 32.213 -0 -11.03635 -13.61779 -4.968201 -2.76452 6.492036 -15.47392 -0 16.73736 -0 8.426411 -10.97164 18.26261 0.2332292 -3.119547 9.438211 -1.299614 16.32312 -4.78288 0.3533792 19.57942 3.1495 4.655978 -14.26475 1.681519 2.338182 -30.02586 13.09935 82.57724 26.36086 -6.142217 -0 0 34.02536 -22.93437 14.33226 9.208424 4.577996 -23.48424 -8.192593 -96.4065 4.532388 37.03408 -0 0 2.844429 11.31747 13.49212 -4.340592
-522.1912 69.81006 1511.115 -2.16576 -2.23354 -10.53146 8.115997 -16.43675 5.848456 -0 32.22985 -0 -11.02858 -13.6284 -4.971029 -2.769887 6.501543 -15.48696 -0 16.71102 -0 8.426946 -10.97946 18.27733 0.2333263 -3.11952 9.438709 -1.299802 16.32315 -4.782252 0.3535216 19.57939 3.149194 4.655647 -14.26487 1.681577 2.338133 -30.02705 13.09942 82.576 26.36028 -6.139612 -0 0 34.0275 -22.93496 14.33257 9.209887 4.577396 -23.48304 -8.192117 -96.4082 4.532591 37.03699 -0 0 2.847928 11.31592 13.49213 -4.338455
-522.403 69.87788 1513.555 -2.157796 -2.237377 -10.43566 8.108567 -16.43824 5.856456 -0 32.24796 -0 -11.01773 -13.63894 -4.973949 -2.776377 6.514343 -15.50217 -0 16.68277 -0 8.424762 -10.99187 18.29195 0.2332867 -3.11948 9.439084 -1.300007 16.3231 -4.781866 0.3535455 19.5793 3.149088 4.655736 -14.2646 1.681447 2.338459 -30.0276 13.09946 82.57485 26.36083 -6.13796 -0 0 34.02916 -22.93501 14.33265 9.21011 4.577293 -23.48244 -8.191842 -96.40905 4.532195 37.0385 -0 0 2.85016 11.31552 13.49205 -4.338067
-522.6103 69.94483 1515.992 -2.149515 -2.238531 -10.33955 8.10179 -16.44661 5.866238 -0 32.26657 -0 -11.00431 -13.64899 -4.976844 -2.783701 6.529838 -15.51889 -0 16.65377 -0 8.420003 -11.00828 18.30587 0.2331153 -3.11943 9.439324 -1.30022 16.32297 -4.781734 0.3534527 19.57917 3.149181 4.656233 -14.26395 1.68114 2.339137 -30.02752 13.09946 82.57384 26.36248 -6.137305 -0 0 34.03027 -22.93454 14.3325 9.209112 4.577678 -23.48247 -8.191776 -96.40904 4.53123 37.03858 -0 0 2.851065 11.31626 13.49189 -4.339402
-522.8131 70.01097 1518.428 -2.141111 -2.237161 -10.24291 8.095927 -16.46137 5.877374 -0 32.28493 -0 -10.9889 -13.65817 -4.9796 -2.791543 6.547336 -15.53642 -0 16.62519 -0 8.412916 -11.02793 18.31857 0.2328222 -3.119372 9.439421 -1.300433 16.32277 -4.781853 0.3532495 19.579 3.149466 4.657107 -14.26296 1.680673 2.340131 -30.02681 13.09943 82.57301 26.36512 -6.137651 -0 0 34.03081 -22.93358 14.33214 9.206963 4.578525 -23.4831 -8.191915 -96.40818 4.529747 37.03728 -0 0 2.850637 11.31807 13.49167 -4.342367
-523.0115 70.07637 1520.862 -2.132777 -2.233526 -10.14559 8.091195 -16.48179 5.889394 -0 32.30229 -0 -10.97216 -13.66616 -4.982114 -2.799575 6.566079 -15.55404 -0 16.59814 -0 8.403834 -11.04998 18.32954 0.2324221 -3.119309 9.439377 -1.300637 16.32252 -4.782215 0.3529466 19.57879 3.149925 4.658316 -14.26167 1.680066 2.341395 -30.02553 13.09937 82.57239 26.36862 -6.13896 -0 0 34.03076 -22.93217 14.33157 9.203776 4.579788 -23.4843 -8.192251 -96.40653 4.527819 37.03466 -0 0 2.848924 11.32088 13.49139 -4.346802
-523.2055 70.14114 1523.295 -2.124701 -2.22797 -10.04743 8.087761 -16.50691 5.901799 -0 32.31798 -0 -10.95479 -13.67268 -4.984294 -2.807467 6.585279 -15.57102 -0 16.57365 -0 8.393162 -11.07348 18.33839 0.2319338 -3.119244 9.439196 -1.300823 16.32222 -4.782798 0.3525586 19.57856 3.150537 4.659801 -14.26015 1.679349 2.342871 -30.02374 13.09929 82.572 26.37283 -6.141158 -0 0 34.03014 -22.93039 14.33084 9.199701 4.581407 -23.48601 -8.192765 -96.40417 4.525532 37.03088 -0 0 2.846027 11.32452 13.49106 -4.352496
-523.3951 70.20541 1525.726 -2.117051 -2.220912 -9.948354 8.085736 -16.53561 5.914086 -0 32.33142 -0 -10.93749 -13.67752 -4.986064 -2.814903 6.604148 -15.58671 -0 16.55263 -0 8.381365 -11.09746 18.3448 0.2313789 -3.119179 9.438889 -1.300986 16.32189 -4.783573 0.3521032 19.57831 3.151273 4.661498 -14.25846 1.678552 2.344494 -30.02151 13.09918 82.57185 26.37756 -6.144134 -0 0 34.029 -22.92831 14.32997 9.194925 4.583309 -23.48813 -8.193431 -96.40123 4.522987 37.0261 -0 0 2.84209 11.32885 13.49071 -4.35919
-523.5804 70.26933 1528.157 -2.109977 -2.21282 -9.848281 8.085169 -16.56665 5.925766 -0 32.34211 -0 -10.92096 -13.68051 -4.987366 -2.821594 6.621935 -15.6005 -0 16.53583 -0 8.368941 -11.12093 18.34858 0.2307814 -3.119117 9.438471 -1.301119 16.32153 -4.784506 0.3516001 19.57806 3.1521 4.663333 -14.25667 1.677709 2.346197 -30.01896 13.09906 82.57194 26.38261 -6.14775 -0 0 34.02739 -22.92603 14.32901 9.189655 4.58541 -23.49059 -8.19422 -96.39782 4.52029 37.02055 -0 0 2.837297 11.33367 13.49033 -4.366591
-523.7615 70.33306 1530.588 -2.103597 -2.2042 -9.747193 8.086048 -16.59872 5.936383 -0 32.34969 -0 -10.90585 -13.68158 -4.98816 -2.827288 6.637952 -15.61189 -0 16.52383 -0 8.356404 -11.14296 18.34962 0.2301661 -3.119061 9.437963 -1.301217 16.32117 -4.785555 0.3510707 19.57782 3.152983 4.665228 -14.25485 1.676855 2.347909 -30.0162 13.09892 82.57226 26.38776 -6.151845 -0 0 34.02538 -22.92364 14.32798 9.184114 4.587621 -23.49327 -8.195097 -96.3941 4.517555 37.01447 -0 0 2.831862 11.33878 13.48995 -4.374386
-523.9383 70.39675 1533.018 -2.097999 -2.195565 -9.645112 8.088303 -16.63051 5.945533 -0 32.35394 -0 -10.89272 -13.68073 -4.988427 -2.831782 6.651602 -15.62047 -0 16.51699 -0 8.344263 -11.1627 18.34796 0.2295581 -3.119013 9.437386 -1.301278 16.32083 -4.786673 0.350537 19.57759 3.153886 4.667108 -14.25309 1.676025 2.349561 -30.01333 13.09878 82.57279 26.39282 -6.156243 -0 0 34.02308 -22.92125 14.32694 9.178532 4.589851 -23.49606 -8.196024 -96.39023 4.514891 37.00811 -0 0 2.826019 11.34395 13.48959 -4.382251
-524.1108 70.46057 1535.449 -2.093233 -2.18742 -9.542094 8.091808 -16.66074 5.952878 -0 32.35477 -0 -10.88208 -13.67802 -4.988167 -2.834924 6.6624 -15.62596 -0 16.51547 -0 8.333 -11.1794 18.34373 0.2289815 -3.118973 9.436766 -1.301299 16.3205 -4.787816 0.3500205 19.57738 3.154771 4.668896 -14.25144 1.675251 2.351089 -30.01048 13.09863 82.57351 26.39757 -6.160758 -0 0 34.02057 -22.91893 14.32593 9.173134 4.592011 -23.49884 -8.196962 -96.38636 4.512404 37.00173 -0 0 2.820013 11.349 13.48926 -4.389871
-524.2792 70.52466 1537.881 -2.089313 -2.180238 -9.438237 8.096389 -16.68822 5.958163 -0 32.35223 -0 -10.87429 -13.6736 -4.987401 -2.836624 6.669988 -15.62821 -0 16.51923 -0 8.323052 -11.19245 18.33715 0.2284584 -3.118943 9.436129 -1.301283 16.32021 -4.788935 0.3495415 19.57721 3.155605 4.670524 -14.24998 1.674563 2.352435 -30.00776 13.09849 82.57437 26.40183 -6.165208 -0 0 34.01797 -22.9168 14.32499 9.168132 4.594015 -23.5015 -8.197874 -96.38265 4.510189 36.9956 -0 0 2.814089 11.35371 13.48896 -4.396946
-524.4434 70.58917 1540.314 -2.086216 -2.174442 -9.333667 8.101835 -16.71192 5.961219 -0 32.3465 -0 -10.86961 -13.66766 -4.986169 -2.836849 6.674146 -15.62722 -0 16.528 -0 8.31479 -11.20141 18.32856 0.2280084 -3.118925 9.435499 -1.301229 16.31997 -4.789987 0.3491183 19.57708 3.156354 4.67193 -14.24875 1.673987 2.353549 -30.00527 13.09836 82.57535 26.40546 -6.169413 -0 0 34.01537 -22.91492 14.32414 9.163716 4.595786 -23.50394 -8.198723 -96.37925 4.508328 36.98995 -0 0 2.808482 11.3579 13.48872 -4.403204
-524.6034 70.65422 1542.749 -2.083885 -2.170387 -9.228538 8.107903 -16.73098 5.961973 -0 32.3379 -0 -10.86815 -13.66047 -4.984529 -2.835628 6.674797 -15.6231 -0 16.54133 -0 8.308508 -11.20603 18.31835 0.2276478 -3.118918 9.434903 -1.301141 16.31978 -4.790931 0.3487665 19.57699 3.156991 4.673063 -14.24781 1.673543 2.354392 -30.00311 13.09825 82.5764 26.40831 -6.173213 -0 0 34.01289 -22.91338 14.32343 9.160051 4.597261 -23.50607 -8.199477 -96.37628 4.506889 36.985 -0 0 2.803409 11.36142 13.48853 -4.408417
